<?xml version="1.0" encoding="UTF-8" standalone="no"?>
<svg xmlns:dc="http://purl.org/dc/elements/1.1/" xmlns:cc="http://creativecommons.org/ns#" xmlns:rdf="http://www.w3.org/1999/02/22-rdf-syntax-ns#" xmlns:svg="http://www.w3.org/2000/svg" xmlns="http://www.w3.org/2000/svg" xmlns:xlink="http://www.w3.org/1999/xlink" width="265.66269mm" height="130mm" viewBox="0 0 265.66269 130" version="1.1" id="svg974">
  <defs id="defs968">
    <linearGradient xlink:href="#linearGradient856" id="linearGradient887" gradientUnits="userSpaceOnUse" gradientTransform="translate(-6.900174,-16.110211)" x1="84.218102" y1="110.09011" x2="260.01181" y2="110.09011" />
    <linearGradient id="linearGradient856">
      <stop style="stop-color:#51ff00;stop-opacity:1" offset="0" id="stop852" />
      <stop style="stop-color:#ccff00;stop-opacity:1" offset="0.1425062" id="stop860" />
      <stop style="stop-color:#ff8a00;stop-opacity:1" offset="0.28501239" id="stop862" />
      <stop style="stop-color:#ff4000;stop-opacity:1" offset="0.44385207" id="stop864" />
      <stop style="stop-color:#ff0058;stop-opacity:0.99938468" offset="0.58917201" id="stop866" />
      <stop style="stop-color:#ff00e5;stop-opacity:1" offset="0.7535032" id="stop868" />
      <stop style="stop-color:#000dff;stop-opacity:1" offset="0.99999994" id="stop870" />
      <stop style="stop-color:#00124c;stop-opacity:0.11764706;" offset="1" id="stop872" />
      <stop style="stop-color:#003cff;stop-opacity:1" offset="1" id="stop854" />
    </linearGradient>
  </defs>
  <metadata id="metadata971">
    <rdf:RDF>
      <cc:Work rdf:about="">
        <dc:format>image/svg+xml</dc:format>
        <dc:type rdf:resource="http://purl.org/dc/dcmitype/StillImage" />
        <dc:title></dc:title>
      </cc:Work>
    </rdf:RDF>
  </metadata>
  <path style="color:#000000;font-style:normal;font-variant:normal;font-weight:normal;font-stretch:normal;font-size:medium;line-height:normal;font-family:sans-serif;font-variant-ligatures:normal;font-variant-position:normal;font-variant-caps:normal;font-variant-numeric:normal;font-variant-alternates:normal;font-variant-east-asian:normal;font-feature-settings:normal;font-variation-settings:normal;text-indent:0;text-align:start;text-decoration:none;text-decoration-line:none;text-decoration-style:solid;text-decoration-color:#000000;letter-spacing:normal;word-spacing:normal;text-transform:none;writing-mode:lr-tb;direction:ltr;text-orientation:mixed;dominant-baseline:auto;baseline-shift:baseline;text-anchor:start;white-space:normal;shape-padding:0;shape-margin:0;inline-size:0;clip-rule:nonzero;display:inline;overflow:visible;visibility:visible;isolation:auto;mix-blend-mode:normal;color-interpolation:sRGB;color-interpolation-filters:linearRGB;solid-color:#000000;solid-opacity:1;vector-effect:none;fill:#ffffff;fill-opacity:0;fill-rule:nonzero;stroke:none;stroke-width:2;stroke-linecap:butt;stroke-linejoin:round;stroke-miterlimit:4;stroke-dasharray:none;stroke-dashoffset:0;stroke-opacity:1;color-rendering:auto;image-rendering:auto;shape-rendering:auto;text-rendering:auto;enable-background:accumulate;stop-color:#000000" d="m 33.978212,66.86949 c 0,4.283157 -3.472185,7.755341 -7.755342,7.755341 -4.283156,0 -7.755341,-3.472185 -7.755341,-7.755341 0,-4.283157 3.472184,-7.755342 7.755341,-7.755342 4.283157,0 7.755342,3.472185 7.755342,7.755342 z" id="path1234" />
  <path style="color:#000000;font-style:normal;font-variant:normal;font-weight:normal;font-stretch:normal;font-size:medium;line-height:normal;font-family:sans-serif;font-variant-ligatures:normal;font-variant-position:normal;font-variant-caps:normal;font-variant-numeric:normal;font-variant-alternates:normal;font-variant-east-asian:normal;font-feature-settings:normal;font-variation-settings:normal;text-indent:0;text-align:start;text-decoration:none;text-decoration-line:none;text-decoration-style:solid;text-decoration-color:#000000;letter-spacing:normal;word-spacing:normal;text-transform:none;writing-mode:lr-tb;direction:ltr;text-orientation:mixed;dominant-baseline:auto;baseline-shift:baseline;text-anchor:start;white-space:normal;shape-padding:0;shape-margin:0;inline-size:0;clip-rule:nonzero;display:inline;overflow:visible;visibility:visible;isolation:auto;mix-blend-mode:normal;color-interpolation:sRGB;color-interpolation-filters:linearRGB;solid-color:#000000;solid-opacity:1;vector-effect:none;fill:#ffffff;fill-opacity:0;fill-rule:nonzero;stroke:none;stroke-width:2;stroke-linecap:butt;stroke-linejoin:round;stroke-miterlimit:4;stroke-dasharray:none;stroke-dashoffset:0;stroke-opacity:1;color-rendering:auto;image-rendering:auto;shape-rendering:auto;text-rendering:auto;enable-background:accumulate;stop-color:#000000" d="M 11.974952,119.03594 V 76.759023 c 0,-6.015973 0.517902,-7.635568 6.447459,-9.478118" id="path1240" />
  <g id="g866">
    <rect style="vector-effect:none;fill:#ffffff;fill-opacity:1;stroke:none;stroke-width:0.922019;stroke-linecap:round;stroke-linejoin:round;stroke-miterlimit:4;stroke-dasharray:none;stroke-dashoffset:0;stroke-opacity:1;stop-color:#000000" id="rect1110" width="265.66269" height="130" x="-2.9235841e-07" y="3.6169433e-07" />
    <g id="g860">
      <path id="path1236" style="color:#000000;font-style:normal;font-variant:normal;font-weight:normal;font-stretch:normal;font-size:medium;line-height:normal;font-family:sans-serif;font-variant-ligatures:normal;font-variant-position:normal;font-variant-caps:normal;font-variant-numeric:normal;font-variant-alternates:normal;font-variant-east-asian:normal;font-feature-settings:normal;font-variation-settings:normal;text-indent:0;text-align:start;text-decoration:none;text-decoration-line:none;text-decoration-style:solid;text-decoration-color:#000000;letter-spacing:normal;word-spacing:normal;text-transform:none;writing-mode:lr-tb;direction:ltr;text-orientation:mixed;dominant-baseline:auto;baseline-shift:baseline;text-anchor:start;white-space:normal;shape-padding:0;shape-margin:0;inline-size:0;clip-rule:nonzero;display:inline;overflow:visible;visibility:visible;isolation:auto;mix-blend-mode:normal;color-interpolation:sRGB;color-interpolation-filters:linearRGB;solid-color:#000000;solid-opacity:1;vector-effect:none;fill:#000000;fill-opacity:1;fill-rule:nonzero;stroke:none;stroke-width:1.43933;stroke-linecap:butt;stroke-linejoin:miter;stroke-miterlimit:4;stroke-dasharray:none;stroke-dashoffset:0;stroke-opacity:1;color-rendering:auto;image-rendering:auto;shape-rendering:auto;text-rendering:auto;enable-background:accumulate;stop-color:#000000" d="M 45.391497,10.432103 C 32.563521,10.531854 22.218235,20.897016 22.218235,33.64929 V 44.644484 H 45.575464 68.932695 V 33.64929 c 0,-12.752274 -10.34529,-23.117436 -23.173263,-23.217187 -0.06098,-2.4e-4 -0.122452,-2.4e-4 -0.183452,0 h -5.16e-4 -10e-4 c -0.061,-2.4e-4 -0.121957,-2.4e-4 -0.182933,0 z M 13.387766,43.899309 c -0.0078,2.62e-4 -0.01551,5.05e-4 -0.02325,10e-4 -0.0396,0.0013 -0.07911,0.0048 -0.118339,0.01033 -0.602232,0.08526 -1.020725,0.643408 -0.933793,1.245402 0.367896,2.614892 1.626412,4.411791 3.381189,5.361431 1.754777,0.949629 3.850574,1.13275 6.080765,1.132745 h 0.443901 v 5.19e-4 h 23.356195 0.001 5.16e-4 23.356715 v -5.19e-4 h 0.431525 c 2.230194,0 4.325991,-0.183116 6.080768,-1.132745 1.754775,-0.94964 3.013292,-2.746539 3.381187,-5.361431 0.08693,-0.601994 -0.33156,-1.160138 -0.933791,-1.245402 -0.03906,-0.0056 -0.07839,-0.009 -0.117824,-0.01033 -0.561856,-0.01984 -1.048116,0.387493 -1.127062,0.944129 -0.298783,2.123667 -1.06358,3.099361 -2.248958,3.740856 -1.185384,0.641485 -2.941944,0.869715 -5.03432,0.869715 H 68.932695 V 47.735767 H 45.575464 22.218235 v 1.719276 h -0.443901 c -2.09237,0 -3.848935,-0.22823 -5.034318,-0.869715 -1.185379,-0.641495 -1.949657,-1.617189 -2.248441,-3.740856 -0.07749,-0.548029 -0.550382,-0.952955 -1.103809,-0.945163 z m 16.379878,14.746387 c -4.713057,0 -8.573249,3.754263 -8.747786,8.425841 -2.652313,0.878237 -4.359743,1.812208 -5.346443,3.384291 -1.066526,1.699265 -1.153935,3.797522 -1.153935,6.834208 v 42.277514 h 1.999878 V 77.290036 c 0,-2.979293 0.172678,-4.696579 0.847493,-5.771742 0.584009,-0.930484 1.662522,-1.63662 3.816305,-2.392619 0.804462,4.002158 4.350985,7.031614 8.584488,7.031611 4.823596,0 8.755537,-3.932465 8.755537,-8.756052 0,-4.8236 -3.931938,-8.755538 -8.755537,-8.755538 z m 0,1.999877 c 3.742718,0 6.75566,3.01294 6.75566,6.755661 -2e-6,3.742709 -3.012942,6.756175 -6.75566,6.756175 -3.742715,0 -6.756176,-3.013466 -6.756176,-6.756175 0,-3.742719 3.01346,-6.755661 6.756176,-6.755661 z m 13.46171,21.205424 c -3.384518,-0.0232 -8.60186,8.662242 -19.668566,4.479822 6.965275,6.86 20.046695,4.93791 21.983154,0.1695 1.735513,4.86973 15.001038,6.89701 22.033795,-0.0295 -13.363569,5.05047 -18.197628,-8.662657 -21.57491,-3.1471 -0.172257,0.28133 -0.305297,0.55816 -0.407725,0.83096 -0.10645,-0.3176 -0.25767,-0.64154 -0.459404,-0.971 -0.580469,-0.94798 -1.203897,-1.327916 -1.906344,-1.332732 z M 30.776885,111.25437 c -1.576497,-0.0502 -1.750276,3.12686 -1.750281,4.25607 -4e-6,1.26979 0.423517,4.34842 1.941483,4.03541 3.438551,-0.70904 4.807412,-1.94554 6.541203,-2.08411 2.380223,-0.19024 3.99252,-0.62372 3.99252,-2.31717 0,-1.79772 -1.697262,-1.95569 -4.054014,-2.06086 -1.942725,-0.0867 -3.066301,-1.26903 -6.513814,-1.81436 -0.05382,-0.009 -0.106244,-0.0134 -0.157097,-0.015 z m 28.909861,0 c -0.05085,0.002 -0.10328,0.006 -0.157096,0.015 -3.447513,0.54533 -4.571606,1.72765 -6.51433,1.81436 -2.356752,0.10517 -4.053499,0.26314 -4.053499,2.06086 0,1.69345 1.611781,2.12693 3.992004,2.31717 1.733791,0.13857 3.103169,1.37507 6.54172,2.08411 1.51797,0.31301 1.941486,-2.76562 1.941483,-4.03541 -5e-6,-1.12921 -0.173786,-4.30626 -1.750282,-4.25607 z m -14.411004,0.91053 c -1.427276,0.027 -2.572467,1.4165 -2.572454,3.12126 -6.9e-5,1.72406 1.170181,3.12175 2.613795,3.12177 1.443614,-3e-5 2.613861,-1.39771 2.613792,-3.12177 -1.69e-4,-1.72386 -1.170347,-3.12123 -2.613792,-3.12126 -0.01378,-1.3e-4 -0.02756,-1.3e-4 -0.04134,0 z" />
      <path id="path876" style="font-style:normal;font-variant:normal;font-weight:normal;font-stretch:normal;font-size:76.7646px;line-height:1.25;font-family:'Crimson Text';-inkscape-font-specification:'Crimson Text';letter-spacing:0px;word-spacing:0px;fill:url(#linearGradient887);fill-opacity:1;stroke:#000000;stroke-width:0.499999;stroke-miterlimit:4;stroke-dasharray:none" d="m 93.510625,68.641582 c -7.496551,0 -14.69316,5.24769 -14.69316,13.19402 0,7.57151 7.271309,11.61943 13.043649,14.99289 5.17261,2.99862 9.970446,4.573068 9.970446,10.795198 0,5.8473 -4.347978,8.62066 -8.995829,8.62066 -9.895441,0 -11.919442,-8.54572 -12.444201,-10.79468 -0.224891,-0.29986 -1.049684,-0.6749 -1.874306,-0.6749 -0.524758,0 -1.199409,0.0753 -1.199409,0.4501 0,0.89958 0.974714,7.49621 1.874303,11.91918 3.6733,0.74965 8.3961,2.17403 13.49375,2.17403 8.021302,0 15.667782,-5.47235 15.667782,-13.71855 0,-7.421568 -8.09646,-11.319818 -13.044168,-14.468368 -4.947722,-3.14854 -10.494968,-5.62221 -10.494968,-11.61945 0,-3.59834 1.574117,-7.79642 8.171079,-7.79642 5.92227,0 9.595577,5.77208 10.045377,9.52035 0.14993,0.74966 1.64937,0.74982 1.94924,0.74982 0.22489,0 0.74982,-2.6e-4 0.74982,-0.52503 0,-2.02406 -1e-4,-6.74659 -0.89968,-10.71976 -4.947717,-1.12448 -6.671867,-2.09909 -11.319725,-2.09909 z m 69.343055,0.59944 c -0.14993,0.14993 -0.30024,0.7501 -0.30024,1.27486 0,0.52476 0.15031,0.89917 0.30024,0.89917 0.89958,0 4.79747,0.74993 5.17229,1.64951 0.4498,1.72421 0.52504,5.09778 0.52504,6.44715 v 28.336768 c 0,2.77372 -2.6e-4,6.14701 -0.52504,7.0466 -0.59972,1.04951 -4.27271,1.72444 -5.17229,1.72444 -0.14993,0 -0.22531,0.59977 -0.22531,1.04956 0,0.67469 0.15034,1.04951 0.22531,1.12448 0,0 4.04807,-0.29975 9.07076,-0.22479 5.09765,-0.14993 9.52039,0.22479 12.81886,0.22479 16.79226,0 25.93795,-11.6198 25.93795,-25.413438 0,-11.99447 -8.54601,-24.1391 -25.86302,-24.1391 -3.29848,0 -7.87104,0.15038 -13.04365,0.15038 -5.02269,0 -8.9209,-0.15038 -8.9209,-0.15038 z m 51.8759,5.3e-4 c -0.14993,0.14993 -0.29972,0.74958 -0.29972,1.27434 0,0.52476 0.14979,0.89917 0.29972,0.89917 0.89959,0 4.79798,0.74993 5.17281,1.64951 0.44979,1.72421 0.52451,5.09778 0.52453,6.44715 v 28.336768 c 0,2.77372 2.3e-4,6.14701 -0.52453,7.0466 -0.59972,1.04951 -4.27322,1.72444 -5.17281,1.72444 -0.14993,0 -0.22479,0.52484 -0.22479,0.97463 0,0.67469 0.14983,1.12444 0.22479,1.19941 0,0 4.04808,-0.22479 9.07076,-0.22479 h 10.27019 c 11.39474,0 19.04121,-5.39777 19.04121,-14.01879 0,-7.646478 -8.32125,-12.519448 -11.02001,-12.969228 -0.075,0 -0.22454,-0.22469 0.37518,-0.44959 1.19944,-0.44979 7.42125,-3.52311 7.42125,-9.52035 0,-9.52061 -9.52061,-12.29434 -15.66777,-12.29434 -4.42296,0 -3.59812,0.0749 -10.56991,0.0749 -5.02268,0 -8.9209,-0.14986 -8.9209,-0.14986 z m -94.53118,1.12448 c -2.09903,0 -3.74861,1.64906 -3.74861,3.74809 0,2.09903 1.64958,3.74809 3.74861,3.74809 2.09903,0 3.74809,-1.64906 3.74809,-3.74809 0,-2.09903 -1.64906,-3.74809 -3.74809,-3.74809 z m 112.82258,2.02365 c 6.97178,0 10.27017,4.27314 10.27017,10.94507 0,4.27303 -3.29827,6.67176 -7.19646,7.04659 -1.19945,0.14993 -2.84882,0.22531 -4.1982,0.22531 -2.62379,0 -4.94749,-0.22517 -4.94749,-0.52503 v -8.9209 c 0,0 0.14978,-5.54757 0.29972,-7.57163 0,-0.29986 0.15023,-0.59941 0.45009,-0.67438 1.04952,-0.29986 3.52299,-0.52503 5.32217,-0.52503 z m -47.97796,0.14986 h 0.37517 c 12.3693,0 17.76688,10.19563 17.76688,20.54087 0,14.618258 -5.77265,22.264788 -17.24236,22.264788 -1.19945,0 -9.22039,-0.37518 -9.74514,-1.49966 -0.82462,-1.87413 -1.12448,-3.44836 -1.12448,-5.69732 V 78.462172 c 0,-1.34938 0.14948,-3.59823 0.9741,-4.72271 0.82462,-1.12448 7.19666,-1.19993 8.99583,-1.19993 z m -32.46003,13.26896 c -3.37345,0 -6.89656,3.22353 -8.39587,5.54746 l 0.44958,-3.74809 c 0.075,-0.37483 0.0752,-1.57406 -0.37465,-1.57406 -0.075,0 -0.29969,0.0749 -0.37466,0.0749 -2.77373,0.82462 -6.97218,1.42396 -10.34562,1.94872 -0.37483,0.075 -0.44958,1.79933 -0.44958,1.8743 0,0.44979 2.69881,-0.29962 4.34805,1.72444 0.97455,1.04952 1.04955,3.44809 1.04955,4.04782 v 14.168638 c 0,1.04952 -0.0753,3.37361 -0.52503,5.24774 -0.2249,0.82462 -3.67327,1.49913 -4.57285,1.49913 -0.37483,0 -0.37483,1.79921 0,2.17404 3.07358,-0.14993 5.098,-0.37465 8.17159,-0.37465 2.84869,0 5.09754,0.22472 8.09615,0.37465 0.14993,-0.44979 0.15003,-2.17404 -0.22479,-2.17404 -0.59973,0 -4.34796,-0.67451 -4.57285,-1.49913 -0.52476,-2.02406 -0.59996,-4.19808 -0.59996,-6.67194 V 97.203642 c 0,-3.07358 2.54875,-6.74688 5.77226,-6.74688 3.67331,0 2.69878,2.54868 5.54746,2.54868 1.34938,0 2.84892,-1.19972 2.84892,-5.02294 -1.19945,-1.79917 -2.84909,-2.17403 -5.8477,-2.17403 z m -28.93622,0.22531 c -0.075,0 -0.3002,0.0749 -0.37517,0.0749 -2.77372,0.82462 -6.97166,1.42396 -10.34511,1.94872 -0.37482,0.075 -0.44958,1.79933 -0.44958,1.8743 0,0.44979 2.69831,-0.29962 4.34754,1.72444 0.97456,1.04952 1.04954,3.44809 1.04954,4.04782 v 14.168638 c 0,1.04952 -0.0747,3.37361 -0.52451,5.24774 -0.22489,0.82462 -3.67326,1.49913 -4.57285,1.49913 -0.37483,0 -0.37483,1.79921 0,2.17404 3.07358,-0.14993 5.0975,-0.37465 8.17108,-0.37465 2.84869,0 5.02261,0.22472 8.02122,0.37465 0.14994,-0.44979 0.15003,-2.17404 -0.2248,-2.17404 -0.59973,0 -4.27301,-0.67451 -4.49791,-1.49913 -0.52476,-2.02406 -0.59945,-4.19808 -0.59945,-6.67194 V 93.005432 c 0,-2.54882 0.0748,-2.99871 0.37465,-5.3976 0.075,-0.37483 0.0752,-1.57406 -0.37465,-1.57406 z m 108.99955,7.72097 c 9.97041,0 13.34389,5.99755 13.34389,11.619958 0,9.14578 -10.34506,9.82059 -13.79347,9.82059 -0.8996,0 -3.14876,-0.22493 -4.04834,-1.04955 -1.27441,-1.04951 -1.1994,-5.62242 -1.1994,-6.67194 V 96.528772 c 0,-0.59973 0.22475,-2.24886 0.29972,-2.47375 1.87413,-0.14993 2.84877,-0.30024 5.3976,-0.30024 z" />
    </g>
  </g>
</svg>
